<?xml version="1.0" encoding="UTF-8"?>
<svg xmlns="http://www.w3.org/2000/svg" version="1.1" width="100" height="100" viewBox="0 0 100 100"><rect x="0" y="0" width="100" height="100" fill="#ffffff"/><g transform="scale(3.03)"><g transform="translate(0,0)"><path fill-rule="evenodd" d="M10 0L10 2L11 2L11 0ZM12 0L12 1L15 1L15 3L14 3L14 4L13 4L13 2L12 2L12 4L13 4L13 5L11 5L11 6L10 6L10 4L11 4L11 3L8 3L8 4L9 4L9 5L8 5L8 7L9 7L9 8L6 8L6 9L5 9L5 8L0 8L0 10L1 10L1 9L2 9L2 11L1 11L1 12L0 12L0 13L1 13L1 14L0 14L0 15L3 15L3 14L4 14L4 15L5 15L5 16L2 16L2 17L1 17L1 16L0 16L0 17L1 17L1 19L0 19L0 20L1 20L1 21L0 21L0 25L1 25L1 22L2 22L2 25L4 25L4 24L5 24L5 25L7 25L7 24L6 24L6 23L8 23L8 20L9 20L9 21L10 21L10 20L11 20L11 19L8 19L8 18L9 18L9 17L8 17L8 15L7 15L7 14L9 14L9 13L11 13L11 12L9 12L9 11L8 11L8 10L6 10L6 9L10 9L10 11L11 11L11 9L12 9L12 10L13 10L13 9L14 9L14 10L15 10L15 11L16 11L16 10L15 10L15 9L17 9L17 10L19 10L19 9L20 9L20 10L21 10L21 11L20 11L20 15L19 15L19 14L18 14L18 15L19 15L19 16L20 16L20 19L19 19L19 20L20 20L20 23L21 23L21 24L22 24L22 25L20 25L20 27L18 27L18 26L19 26L19 25L17 25L17 23L18 23L18 24L19 24L19 21L17 21L17 20L15 20L15 21L14 21L14 20L13 20L13 19L12 19L12 20L13 20L13 21L11 21L11 22L10 22L10 23L9 23L9 24L8 24L8 27L9 27L9 28L8 28L8 33L11 33L11 32L9 32L9 30L12 30L12 32L13 32L13 33L14 33L14 32L13 32L13 29L14 29L14 30L15 30L15 32L17 32L17 33L19 33L19 32L20 32L20 33L21 33L21 32L22 32L22 33L23 33L23 32L24 32L24 33L25 33L25 32L24 32L24 31L27 31L27 32L28 32L28 33L29 33L29 31L30 31L30 32L31 32L31 33L32 33L32 32L31 32L31 31L32 31L32 30L31 30L31 29L32 29L32 28L33 28L33 27L32 27L32 26L33 26L33 24L32 24L32 26L31 26L31 25L30 25L30 24L31 24L31 23L32 23L32 22L33 22L33 21L32 21L32 20L31 20L31 19L32 19L32 18L33 18L33 17L32 17L32 16L31 16L31 15L32 15L32 14L33 14L33 13L31 13L31 15L30 15L30 13L29 13L29 10L28 10L28 8L27 8L27 9L26 9L26 8L24 8L24 9L23 9L23 8L22 8L22 7L23 7L23 6L22 6L22 7L21 7L21 5L24 5L24 4L23 4L23 1L24 1L24 2L25 2L25 0L23 0L23 1L22 1L22 2L21 2L21 0L20 0L20 2L18 2L18 3L19 3L19 4L18 4L18 5L17 5L17 6L16 6L16 5L15 5L15 4L17 4L17 3L16 3L16 1L15 1L15 0ZM8 1L8 2L9 2L9 1ZM20 2L20 4L19 4L19 5L18 5L18 6L17 6L17 7L16 7L16 6L15 6L15 8L14 8L14 6L13 6L13 7L12 7L12 6L11 6L11 7L12 7L12 9L13 9L13 8L14 8L14 9L15 9L15 8L19 8L19 7L20 7L20 4L22 4L22 3L21 3L21 2ZM9 6L9 7L10 7L10 6ZM18 6L18 7L19 7L19 6ZM24 6L24 7L25 7L25 6ZM10 8L10 9L11 9L11 8ZM21 8L21 9L22 9L22 10L23 10L23 11L26 11L26 12L23 12L23 13L24 13L24 14L21 14L21 15L20 15L20 16L21 16L21 17L22 17L22 16L21 16L21 15L25 15L25 16L23 16L23 17L24 17L24 18L23 18L23 21L22 21L22 20L21 20L21 19L20 19L20 20L21 20L21 22L23 22L23 23L22 23L22 24L23 24L23 23L24 23L24 24L27 24L27 22L25 22L25 21L27 21L27 20L28 20L28 19L26 19L26 18L25 18L25 17L28 17L28 18L29 18L29 17L30 17L30 19L29 19L29 20L30 20L30 21L28 21L28 24L30 24L30 23L29 23L29 22L30 22L30 21L31 21L31 20L30 20L30 19L31 19L31 16L30 16L30 15L29 15L29 13L28 13L28 16L26 16L26 14L25 14L25 13L27 13L27 12L28 12L28 11L27 11L27 10L25 10L25 9L24 9L24 10L23 10L23 9L22 9L22 8ZM29 8L29 9L30 9L30 8ZM31 8L31 10L33 10L33 9L32 9L32 8ZM4 9L4 11L3 11L3 12L1 12L1 13L3 13L3 12L4 12L4 14L5 14L5 15L6 15L6 16L7 16L7 15L6 15L6 14L7 14L7 13L6 13L6 12L7 12L7 11L6 11L6 10L5 10L5 9ZM12 11L12 13L14 13L14 14L15 14L15 17L14 17L14 16L12 16L12 15L13 15L13 14L11 14L11 17L10 17L10 18L11 18L11 17L12 17L12 18L13 18L13 17L14 17L14 18L15 18L15 19L16 19L16 18L15 18L15 17L17 17L17 19L18 19L18 17L17 17L17 16L16 16L16 14L15 14L15 13L19 13L19 12L15 12L15 13L14 13L14 12L13 12L13 11ZM30 11L30 12L31 12L31 11ZM8 12L8 13L9 13L9 12ZM21 12L21 13L22 13L22 12ZM9 15L9 16L10 16L10 15ZM28 16L28 17L29 17L29 16ZM2 17L2 18L4 18L4 19L6 19L6 20L8 20L8 19L6 19L6 18L7 18L7 17L6 17L6 18L5 18L5 17ZM24 19L24 21L23 21L23 22L24 22L24 21L25 21L25 19ZM2 20L2 22L4 22L4 23L6 23L6 22L7 22L7 21L6 21L6 22L5 22L5 21L4 21L4 20ZM13 21L13 24L12 24L12 22L11 22L11 24L10 24L10 25L9 25L9 26L10 26L10 27L11 27L11 29L13 29L13 28L14 28L14 29L15 29L15 30L19 30L19 31L17 31L17 32L19 32L19 31L20 31L20 32L21 32L21 29L22 29L22 28L23 28L23 30L22 30L22 31L24 31L24 27L22 27L22 28L20 28L20 30L19 30L19 28L18 28L18 27L16 27L16 28L17 28L17 29L15 29L15 26L14 26L14 25L16 25L16 23L15 23L15 22L17 22L17 21L15 21L15 22L14 22L14 21ZM13 24L13 25L11 25L11 26L12 26L12 28L13 28L13 25L14 25L14 24ZM23 25L23 26L24 26L24 25ZM25 25L25 28L28 28L28 25ZM29 25L29 28L30 28L30 29L31 29L31 28L30 28L30 27L31 27L31 26L30 26L30 25ZM26 26L26 27L27 27L27 26ZM25 29L25 30L28 30L28 31L29 31L29 30L28 30L28 29ZM30 30L30 31L31 31L31 30ZM0 0L0 7L7 7L7 0ZM1 1L1 6L6 6L6 1ZM2 2L2 5L5 5L5 2ZM26 0L26 7L33 7L33 0ZM27 1L27 6L32 6L32 1ZM28 2L28 5L31 5L31 2ZM0 26L0 33L7 33L7 26ZM1 27L1 32L6 32L6 27ZM2 28L2 31L5 31L5 28Z" fill="#000000"/></g></g></svg>
