<?xml version="1.0" encoding="UTF-8"?>
<svg xmlns="http://www.w3.org/2000/svg" version="1.1" width="100" height="100" viewBox="0 0 100 100"><rect x="0" y="0" width="100" height="100" fill="#ffffff"/><g transform="scale(3.03)"><g transform="translate(0,0)"><path fill-rule="evenodd" d="M11 0L11 1L8 1L8 3L9 3L9 2L10 2L10 3L11 3L11 4L10 4L10 5L14 5L14 7L15 7L15 9L14 9L14 8L13 8L13 10L12 10L12 11L13 11L13 13L14 13L14 14L11 14L11 13L9 13L9 12L8 12L8 11L7 11L7 10L6 10L6 9L8 9L8 10L9 10L9 11L11 11L11 10L9 10L9 9L8 9L8 8L10 8L10 9L12 9L12 7L13 7L13 6L12 6L12 7L11 7L11 6L10 6L10 7L9 7L9 4L8 4L8 8L6 8L6 9L4 9L4 8L3 8L3 9L2 9L2 8L0 8L0 13L1 13L1 14L2 14L2 16L1 16L1 15L0 15L0 16L1 16L1 18L2 18L2 19L1 19L1 20L0 20L0 21L3 21L3 20L2 20L2 19L4 19L4 20L5 20L5 19L8 19L8 20L6 20L6 21L4 21L4 22L0 22L0 23L1 23L1 24L0 24L0 25L1 25L1 24L2 24L2 25L4 25L4 22L6 22L6 23L7 23L7 22L8 22L8 21L9 21L9 22L11 22L11 21L12 21L12 19L15 19L15 18L16 18L16 20L15 20L15 21L14 21L14 20L13 20L13 22L12 22L12 23L13 23L13 25L14 25L14 26L10 26L10 28L9 28L9 29L8 29L8 30L9 30L9 31L8 31L8 33L9 33L9 32L10 32L10 33L12 33L12 31L14 31L14 32L13 32L13 33L14 33L14 32L15 32L15 33L17 33L17 32L18 32L18 33L19 33L19 31L18 31L18 30L17 30L17 32L16 32L16 31L14 31L14 30L12 30L12 29L11 29L11 28L12 28L12 27L13 27L13 29L14 29L14 28L16 28L16 29L17 29L17 28L18 28L18 26L20 26L20 27L21 27L21 31L20 31L20 32L21 32L21 33L22 33L22 32L23 32L23 33L26 33L26 32L25 32L25 31L26 31L26 30L27 30L27 29L28 29L28 31L27 31L27 33L28 33L28 31L29 31L29 33L30 33L30 31L29 31L29 29L30 29L30 27L32 27L32 26L33 26L33 25L32 25L32 26L31 26L31 25L30 25L30 24L28 24L28 20L30 20L30 18L31 18L31 19L33 19L33 18L31 18L31 17L29 17L29 16L30 16L30 15L29 15L29 13L27 13L27 10L28 10L28 12L29 12L29 10L31 10L31 12L32 12L32 13L30 13L30 14L31 14L31 16L32 16L32 17L33 17L33 16L32 16L32 14L33 14L33 9L32 9L32 8L30 8L30 9L29 9L29 8L26 8L26 10L24 10L24 11L26 11L26 13L25 13L25 14L22 14L22 12L23 12L23 11L22 11L22 10L23 10L23 9L24 9L24 7L25 7L25 6L24 6L24 7L23 7L23 6L22 6L22 5L21 5L21 4L20 4L20 5L19 5L19 6L18 6L18 5L16 5L16 4L19 4L19 3L21 3L21 1L23 1L23 3L22 3L22 4L23 4L23 5L25 5L25 2L24 2L24 1L25 1L25 0L21 0L21 1L20 1L20 2L19 2L19 3L18 3L18 1L19 1L19 0L18 0L18 1L17 1L17 2L16 2L16 1L14 1L14 0ZM12 1L12 2L13 2L13 4L14 4L14 5L15 5L15 3L16 3L16 2L15 2L15 3L14 3L14 2L13 2L13 1ZM15 6L15 7L16 7L16 8L17 8L17 7L18 7L18 6L17 6L17 7L16 7L16 6ZM19 6L19 7L20 7L20 8L18 8L18 9L19 9L19 10L20 10L20 11L21 11L21 10L20 10L20 8L21 8L21 7L22 7L22 9L23 9L23 7L22 7L22 6L21 6L21 7L20 7L20 6ZM10 7L10 8L11 8L11 7ZM1 9L1 12L2 12L2 11L4 11L4 9L3 9L3 10L2 10L2 9ZM15 9L15 13L16 13L16 14L14 14L14 16L13 16L13 15L12 15L12 16L11 16L11 14L9 14L9 13L8 13L8 12L7 12L7 11L6 11L6 12L7 12L7 13L5 13L5 14L7 14L7 15L5 15L5 16L3 16L3 17L4 17L4 18L7 18L7 17L8 17L8 19L12 19L12 18L13 18L13 17L14 17L14 18L15 18L15 17L14 17L14 16L16 16L16 17L19 17L19 18L18 18L18 19L19 19L19 20L18 20L18 21L17 21L17 22L20 22L20 24L18 24L18 23L17 23L17 24L16 24L16 22L15 22L15 24L16 24L16 26L15 26L15 27L16 27L16 28L17 28L17 25L21 25L21 26L22 26L22 27L24 27L24 24L25 24L25 23L26 23L26 24L27 24L27 22L25 22L25 21L27 21L27 20L28 20L28 19L29 19L29 17L28 17L28 18L27 18L27 17L25 17L25 15L26 15L26 16L27 16L27 15L28 15L28 14L27 14L27 15L26 15L26 14L25 14L25 15L24 15L24 18L23 18L23 17L22 17L22 18L21 18L21 16L20 16L20 17L19 17L19 15L21 15L21 14L18 14L18 16L16 16L16 14L17 14L17 13L21 13L21 12L18 12L18 11L16 11L16 10L17 10L17 9ZM28 9L28 10L29 10L29 9ZM31 9L31 10L32 10L32 9ZM7 13L7 14L8 14L8 15L9 15L9 14L8 14L8 13ZM5 16L5 17L7 17L7 16ZM9 16L9 17L10 17L10 18L12 18L12 17L11 17L11 16ZM20 18L20 20L19 20L19 21L20 21L20 22L22 22L22 23L21 23L21 25L22 25L22 26L23 26L23 24L22 24L22 23L23 23L23 21L22 21L22 19L21 19L21 18ZM24 18L24 19L25 19L25 20L27 20L27 18ZM10 20L10 21L11 21L11 20ZM20 20L20 21L21 21L21 20ZM31 20L31 21L32 21L32 23L31 23L31 22L30 22L30 21L29 21L29 23L31 23L31 24L33 24L33 21L32 21L32 20ZM6 21L6 22L7 22L7 21ZM2 23L2 24L3 24L3 23ZM8 23L8 24L6 24L6 25L8 25L8 27L9 27L9 25L10 25L10 23ZM8 24L8 25L9 25L9 24ZM25 25L25 28L28 28L28 25ZM26 26L26 27L27 27L27 26ZM29 26L29 27L30 27L30 26ZM19 28L19 29L20 29L20 28ZM23 28L23 30L24 30L24 28ZM31 29L31 31L33 31L33 29ZM10 30L10 32L11 32L11 31L12 31L12 30ZM23 31L23 32L24 32L24 31ZM31 32L31 33L32 33L32 32ZM0 0L0 7L7 7L7 0ZM1 1L1 6L6 6L6 1ZM2 2L2 5L5 5L5 2ZM26 0L26 7L33 7L33 0ZM27 1L27 6L32 6L32 1ZM28 2L28 5L31 5L31 2ZM0 26L0 33L7 33L7 26ZM1 27L1 32L6 32L6 27ZM2 28L2 31L5 31L5 28Z" fill="#000000"/></g></g></svg>
