<?xml version="1.0" encoding="UTF-8"?>
<svg xmlns="http://www.w3.org/2000/svg" version="1.1" width="100" height="100" viewBox="0 0 100 100"><rect x="0" y="0" width="100" height="100" fill="#ffffff"/><g transform="scale(3.03)"><g transform="translate(0,0)"><path fill-rule="evenodd" d="M12 0L12 1L13 1L13 0ZM14 0L14 1L15 1L15 2L16 2L16 1L15 1L15 0ZM20 0L20 2L19 2L19 1L17 1L17 2L19 2L19 3L20 3L20 7L21 7L21 8L22 8L22 9L20 9L20 11L19 11L19 13L17 13L17 12L16 12L16 11L18 11L18 9L17 9L17 5L15 5L15 4L17 4L17 3L15 3L15 4L14 4L14 3L13 3L13 2L12 2L12 3L13 3L13 4L11 4L11 3L8 3L8 4L9 4L9 5L8 5L8 7L9 7L9 8L6 8L6 9L7 9L7 10L6 10L6 11L4 11L4 12L3 12L3 13L1 13L1 15L0 15L0 19L1 19L1 20L0 20L0 25L1 25L1 21L2 21L2 25L8 25L8 27L10 27L10 26L12 26L12 28L13 28L13 29L9 29L9 28L8 28L8 33L9 33L9 30L10 30L10 31L11 31L11 30L12 30L12 32L13 32L13 33L14 33L14 32L13 32L13 29L14 29L14 30L15 30L15 31L16 31L16 33L17 33L17 29L19 29L19 30L18 30L18 31L19 31L19 30L20 30L20 33L21 33L21 32L22 32L22 33L23 33L23 32L24 32L24 33L25 33L25 32L26 32L26 31L27 31L27 32L28 32L28 33L29 33L29 31L28 31L28 30L29 30L29 29L30 29L30 30L31 30L31 31L30 31L30 32L31 32L31 33L32 33L32 32L31 32L31 31L32 31L32 30L31 30L31 29L30 29L30 28L32 28L32 29L33 29L33 27L32 27L32 26L33 26L33 24L32 24L32 26L29 26L29 25L30 25L30 24L31 24L31 23L32 23L32 22L33 22L33 21L32 21L32 20L31 20L31 19L32 19L32 18L33 18L33 17L32 17L32 16L31 16L31 15L32 15L32 14L33 14L33 13L31 13L31 15L30 15L30 13L29 13L29 10L28 10L28 8L27 8L27 9L26 9L26 8L24 8L24 7L25 7L25 6L24 6L24 7L23 7L23 6L22 6L22 7L21 7L21 5L24 5L24 4L25 4L25 2L24 2L24 4L23 4L23 2L21 2L21 1L24 1L24 0ZM8 1L8 2L9 2L9 1ZM10 1L10 2L11 2L11 1ZM20 2L20 3L21 3L21 4L22 4L22 3L21 3L21 2ZM10 4L10 6L9 6L9 7L10 7L10 6L11 6L11 8L10 8L10 9L9 9L9 11L8 11L8 10L7 10L7 11L6 11L6 12L7 12L7 13L6 13L6 14L7 14L7 13L8 13L8 12L11 12L11 13L10 13L10 14L8 14L8 15L10 15L10 18L11 18L11 19L10 19L10 20L9 20L9 22L10 22L10 23L11 23L11 24L10 24L10 25L9 25L9 26L10 26L10 25L13 25L13 28L14 28L14 29L17 29L17 28L20 28L20 29L22 29L22 28L20 28L20 27L21 27L21 26L16 26L16 27L15 27L15 26L14 26L14 25L17 25L17 24L19 24L19 25L20 25L20 23L22 23L22 24L21 24L21 25L22 25L22 26L23 26L23 25L22 25L22 24L24 24L24 22L18 22L18 21L20 21L20 20L21 20L21 21L22 21L22 20L21 20L21 19L22 19L22 18L23 18L23 21L25 21L25 22L26 22L26 21L28 21L28 22L27 22L27 23L28 23L28 24L30 24L30 23L29 23L29 22L30 22L30 21L31 21L31 20L30 20L30 19L31 19L31 16L30 16L30 15L29 15L29 13L28 13L28 15L29 15L29 17L28 17L28 16L27 16L27 14L25 14L25 16L24 16L24 14L23 14L23 15L22 15L22 16L21 16L21 13L22 13L22 12L20 12L20 14L19 14L19 15L17 15L17 16L14 16L14 15L15 15L15 14L17 14L17 13L15 13L15 10L14 10L14 9L16 9L16 6L15 6L15 5L14 5L14 4L13 4L13 5L14 5L14 6L13 6L13 8L12 8L12 5L11 5L11 4ZM14 6L14 7L15 7L15 6ZM18 6L18 8L19 8L19 6ZM0 8L0 12L1 12L1 9L3 9L3 10L2 10L2 11L3 11L3 10L4 10L4 9L5 9L5 8ZM13 8L13 9L10 9L10 11L11 11L11 10L12 10L12 12L13 12L13 13L11 13L11 14L10 14L10 15L11 15L11 14L12 14L12 16L13 16L13 17L11 17L11 18L12 18L12 20L13 20L13 19L14 19L14 18L15 18L15 19L17 19L17 18L15 18L15 17L14 17L14 16L13 16L13 13L14 13L14 14L15 14L15 13L14 13L14 12L13 12L13 11L14 11L14 10L13 10L13 9L14 9L14 8ZM29 8L29 9L30 9L30 8ZM31 8L31 10L33 10L33 9L32 9L32 8ZM22 9L22 10L23 10L23 13L27 13L27 12L28 12L28 11L27 11L27 10L25 10L25 12L24 12L24 10L23 10L23 9ZM26 11L26 12L27 12L27 11ZM30 11L30 12L31 12L31 11ZM4 12L4 13L3 13L3 14L4 14L4 15L5 15L5 16L1 16L1 19L3 19L3 18L5 18L5 17L6 17L6 18L7 18L7 19L5 19L5 20L4 20L4 21L5 21L5 23L3 23L3 24L7 24L7 23L8 23L8 21L6 21L6 20L8 20L8 19L9 19L9 18L7 18L7 17L9 17L9 16L7 16L7 15L5 15L5 14L4 14L4 13L5 13L5 12ZM19 15L19 16L20 16L20 17L19 17L19 18L20 18L20 19L21 19L21 16L20 16L20 15ZM6 16L6 17L7 17L7 16ZM2 17L2 18L3 18L3 17ZM13 17L13 18L14 18L14 17ZM23 17L23 18L24 18L24 20L26 20L26 19L25 19L25 18L27 18L27 19L30 19L30 17L29 17L29 18L28 18L28 17ZM18 19L18 20L19 20L19 19ZM10 20L10 22L12 22L12 24L13 24L13 25L14 25L14 24L15 24L15 23L16 23L16 24L17 24L17 23L18 23L18 22L17 22L17 20L14 20L14 21L11 21L11 20ZM28 20L28 21L30 21L30 20ZM6 22L6 23L7 23L7 22ZM16 22L16 23L17 23L17 22ZM13 23L13 24L14 24L14 23ZM25 23L25 24L26 24L26 23ZM25 25L25 28L28 28L28 25ZM26 26L26 27L27 27L27 26ZM23 27L23 30L21 30L21 31L24 31L24 32L25 32L25 30L28 30L28 29L24 29L24 27ZM29 27L29 28L30 28L30 27ZM0 0L0 7L7 7L7 0ZM1 1L1 6L6 6L6 1ZM2 2L2 5L5 5L5 2ZM26 0L26 7L33 7L33 0ZM27 1L27 6L32 6L32 1ZM28 2L28 5L31 5L31 2ZM0 26L0 33L7 33L7 26ZM1 27L1 32L6 32L6 27ZM2 28L2 31L5 31L5 28Z" fill="#000000"/></g></g></svg>
