<?xml version="1.0" encoding="UTF-8"?>
<svg xmlns="http://www.w3.org/2000/svg" version="1.1" width="100" height="100" viewBox="0 0 100 100"><rect x="0" y="0" width="100" height="100" fill="#ffffff"/><g transform="scale(3.03)"><g transform="translate(0,0)"><path fill-rule="evenodd" d="M9 0L9 1L8 1L8 3L9 3L9 4L8 4L8 8L6 8L6 9L5 9L5 10L4 10L4 12L5 12L5 11L7 11L7 12L6 12L6 13L7 13L7 12L9 12L9 11L11 11L11 9L12 9L12 7L13 7L13 6L12 6L12 7L11 7L11 6L10 6L10 5L9 5L9 4L11 4L11 5L14 5L14 7L15 7L15 6L16 6L16 7L17 7L17 9L16 9L16 8L15 8L15 9L14 9L14 8L13 8L13 10L12 10L12 11L13 11L13 13L14 13L14 14L15 14L15 12L16 12L16 11L18 11L18 12L19 12L19 14L18 14L18 15L13 15L13 14L11 14L11 13L10 13L10 14L11 14L11 16L12 16L12 15L13 15L13 16L14 16L14 17L13 17L13 18L12 18L12 17L11 17L11 18L12 18L12 19L11 19L11 20L10 20L10 18L9 18L9 20L10 20L10 21L9 21L9 22L10 22L10 21L12 21L12 19L15 19L15 18L14 18L14 17L16 17L16 16L19 16L19 17L18 17L18 18L19 18L19 17L20 17L20 16L19 16L19 14L20 14L20 13L21 13L21 14L22 14L22 12L23 12L23 10L22 10L22 7L23 7L23 6L22 6L22 7L21 7L21 6L20 6L20 4L21 4L21 3L20 3L20 2L21 2L21 1L20 1L20 2L19 2L19 3L18 3L18 2L17 2L17 0L15 0L15 5L14 5L14 4L13 4L13 3L12 3L12 1L13 1L13 0L12 0L12 1L11 1L11 0ZM23 0L23 1L22 1L22 2L23 2L23 3L22 3L22 5L24 5L24 9L25 9L25 5L24 5L24 3L25 3L25 1L24 1L24 0ZM9 1L9 2L11 2L11 1ZM16 4L16 5L17 5L17 7L18 7L18 9L17 9L17 10L18 10L18 11L19 11L19 12L21 12L21 11L22 11L22 10L20 10L20 11L19 11L19 10L18 10L18 9L21 9L21 7L20 7L20 6L19 6L19 7L18 7L18 5L19 5L19 4ZM9 6L9 7L10 7L10 8L8 8L8 9L9 9L9 10L10 10L10 8L11 8L11 7L10 7L10 6ZM0 8L0 9L2 9L2 8ZM3 8L3 9L4 9L4 8ZM26 8L26 10L24 10L24 11L25 11L25 12L26 12L26 13L25 13L25 14L23 14L23 16L24 16L24 15L25 15L25 14L28 14L28 15L26 15L26 16L25 16L25 17L27 17L27 18L24 18L24 17L23 17L23 18L24 18L24 19L23 19L23 21L22 21L22 18L21 18L21 20L20 20L20 22L19 22L19 23L18 23L18 19L16 19L16 20L17 20L17 21L15 21L15 20L14 20L14 22L17 22L17 23L16 23L16 24L14 24L14 23L13 23L13 22L12 22L12 23L13 23L13 25L14 25L14 26L16 26L16 27L17 27L17 29L16 29L16 28L14 28L14 27L13 27L13 26L11 26L11 25L10 25L10 24L8 24L8 23L7 23L7 22L8 22L8 19L7 19L7 18L5 18L5 17L10 17L10 16L8 16L8 15L7 15L7 14L6 14L6 15L7 15L7 16L3 16L3 15L5 15L5 14L4 14L4 13L3 13L3 15L2 15L2 12L1 12L1 10L0 10L0 12L1 12L1 14L0 14L0 16L1 16L1 17L0 17L0 19L3 19L3 18L5 18L5 20L6 20L6 21L5 21L5 22L6 22L6 23L5 23L5 24L4 24L4 23L3 23L3 24L2 24L2 21L3 21L3 20L0 20L0 21L1 21L1 22L0 22L0 23L1 23L1 24L0 24L0 25L1 25L1 24L2 24L2 25L3 25L3 24L4 24L4 25L5 25L5 24L6 24L6 25L8 25L8 27L9 27L9 28L10 28L10 29L8 29L8 30L9 30L9 31L8 31L8 33L10 33L10 32L11 32L11 33L12 33L12 31L13 31L13 30L14 30L14 31L15 31L15 30L17 30L17 33L18 33L18 31L19 31L19 28L20 28L20 29L21 29L21 31L20 31L20 33L22 33L22 31L23 31L23 28L24 28L24 30L25 30L25 31L24 31L24 32L23 32L23 33L25 33L25 32L26 32L26 30L27 30L27 29L28 29L28 31L27 31L27 33L28 33L28 31L29 31L29 33L30 33L30 31L29 31L29 29L30 29L30 27L32 27L32 28L31 28L31 31L33 31L33 29L32 29L32 28L33 28L33 27L32 27L32 26L33 26L33 25L32 25L32 26L31 26L31 25L30 25L30 24L28 24L28 20L30 20L30 18L31 18L31 19L33 19L33 18L31 18L31 17L29 17L29 16L30 16L30 15L29 15L29 13L27 13L27 12L26 12L26 11L27 11L27 10L28 10L28 12L29 12L29 10L31 10L31 12L32 12L32 13L30 13L30 14L31 14L31 16L32 16L32 17L33 17L33 16L32 16L32 14L33 14L33 9L32 9L32 8L30 8L30 9L29 9L29 8ZM6 9L6 10L7 10L7 11L8 11L8 10L7 10L7 9ZM28 9L28 10L29 10L29 9ZM31 9L31 10L32 10L32 9ZM2 10L2 11L3 11L3 10ZM13 10L13 11L14 11L14 10ZM15 10L15 11L16 11L16 10ZM8 13L8 14L9 14L9 13ZM16 13L16 14L17 14L17 13ZM1 15L1 16L2 16L2 15ZM21 15L21 17L22 17L22 15ZM1 17L1 18L2 18L2 17ZM28 17L28 18L27 18L27 19L26 19L26 20L25 20L25 19L24 19L24 21L23 21L23 22L22 22L22 25L23 25L23 26L19 26L19 25L21 25L21 23L20 23L20 24L19 24L19 25L16 25L16 26L18 26L18 27L24 27L24 25L23 25L23 24L25 24L25 23L26 23L26 24L27 24L27 22L25 22L25 21L27 21L27 20L28 20L28 19L29 19L29 17ZM6 19L6 20L7 20L7 19ZM31 20L31 21L32 21L32 23L31 23L31 22L30 22L30 21L29 21L29 23L31 23L31 24L33 24L33 21L32 21L32 20ZM6 21L6 22L7 22L7 21ZM24 22L24 23L25 23L25 22ZM6 23L6 24L7 24L7 23ZM17 23L17 24L18 24L18 23ZM25 25L25 28L28 28L28 25ZM9 26L9 27L10 27L10 28L11 28L11 29L10 29L10 30L11 30L11 31L12 31L12 30L13 30L13 29L14 29L14 30L15 30L15 29L14 29L14 28L13 28L13 27L12 27L12 28L11 28L11 26ZM26 26L26 27L27 27L27 26ZM29 26L29 27L30 27L30 26ZM11 29L11 30L12 30L12 29ZM17 29L17 30L18 30L18 29ZM9 31L9 32L10 32L10 31ZM13 32L13 33L14 33L14 32ZM15 32L15 33L16 33L16 32ZM31 32L31 33L32 33L32 32ZM0 0L0 7L7 7L7 0ZM1 1L1 6L6 6L6 1ZM2 2L2 5L5 5L5 2ZM26 0L26 7L33 7L33 0ZM27 1L27 6L32 6L32 1ZM28 2L28 5L31 5L31 2ZM0 26L0 33L7 33L7 26ZM1 27L1 32L6 32L6 27ZM2 28L2 31L5 31L5 28Z" fill="#000000"/></g></g></svg>
