<?xml version="1.0" encoding="UTF-8"?>
<svg xmlns="http://www.w3.org/2000/svg" version="1.1" width="100" height="100" viewBox="0 0 100 100"><rect x="0" y="0" width="100" height="100" fill="#ffffff"/><g transform="scale(3.03)"><g transform="translate(0,0)"><path fill-rule="evenodd" d="M9 0L9 1L8 1L8 2L9 2L9 3L8 3L8 4L9 4L9 5L8 5L8 7L9 7L9 8L6 8L6 9L7 9L7 10L5 10L5 8L0 8L0 9L1 9L1 10L2 10L2 12L0 12L0 13L2 13L2 15L4 15L4 14L5 14L5 16L4 16L4 19L7 19L7 20L3 20L3 19L2 19L2 20L1 20L1 18L0 18L0 20L1 20L1 21L0 21L0 25L1 25L1 22L4 22L4 23L5 23L5 24L4 24L4 25L5 25L5 24L6 24L6 25L7 25L7 24L6 24L6 23L8 23L8 24L10 24L10 25L11 25L11 26L12 26L12 28L13 28L13 27L14 27L14 29L11 29L11 27L10 27L10 26L9 26L9 25L8 25L8 27L10 27L10 28L8 28L8 33L11 33L11 30L12 30L12 32L13 32L13 33L14 33L14 32L17 32L17 33L19 33L19 32L17 32L17 31L18 31L18 30L20 30L20 32L22 32L22 33L23 33L23 32L24 32L24 33L26 33L26 32L24 32L24 31L27 31L27 32L28 32L28 33L29 33L29 31L28 31L28 30L29 30L29 29L30 29L30 30L31 30L31 31L30 31L30 32L31 32L31 33L32 33L32 32L31 32L31 31L32 31L32 30L31 30L31 29L33 29L33 28L32 28L32 26L33 26L33 24L32 24L32 26L29 26L29 25L30 25L30 24L31 24L31 23L32 23L32 22L33 22L33 21L32 21L32 20L31 20L31 19L32 19L32 18L33 18L33 17L32 17L32 16L31 16L31 15L32 15L32 14L33 14L33 13L31 13L31 15L30 15L30 13L29 13L29 10L28 10L28 8L27 8L27 9L26 9L26 8L25 8L25 4L23 4L23 1L24 1L24 3L25 3L25 0L23 0L23 1L22 1L22 2L21 2L21 0L20 0L20 2L19 2L19 0L18 0L18 2L19 2L19 5L15 5L15 4L17 4L17 3L16 3L16 2L17 2L17 0ZM10 1L10 3L9 3L9 4L13 4L13 5L14 5L14 6L13 6L13 8L12 8L12 5L9 5L9 7L10 7L10 9L8 9L8 10L7 10L7 11L4 11L4 9L3 9L3 11L4 11L4 12L2 12L2 13L3 13L3 14L4 14L4 13L6 13L6 14L7 14L7 15L6 15L6 16L7 16L7 15L8 15L8 16L9 16L9 15L8 15L8 14L10 14L10 16L11 16L11 17L9 17L9 18L10 18L10 19L8 19L8 21L5 21L5 22L8 22L8 23L9 23L9 22L8 22L8 21L13 21L13 24L12 24L12 22L11 22L11 23L10 23L10 24L11 24L11 25L13 25L13 26L14 26L14 25L16 25L16 23L15 23L15 22L14 22L14 21L19 21L19 20L20 20L20 21L22 21L22 20L20 20L20 19L21 19L21 18L19 18L19 17L20 17L20 15L23 15L23 16L24 16L24 17L28 17L28 18L29 18L29 17L30 17L30 19L27 19L27 18L26 18L26 19L27 19L27 20L24 20L24 21L25 21L25 22L23 22L23 23L22 23L22 24L21 24L21 27L20 27L20 26L19 26L19 25L20 25L20 22L19 22L19 23L17 23L17 27L16 27L16 28L17 28L17 29L15 29L15 30L18 30L18 29L20 29L20 28L21 28L21 29L22 29L22 28L21 28L21 27L22 27L22 26L23 26L23 25L24 25L24 23L25 23L25 24L26 24L26 23L25 23L25 22L26 22L26 21L28 21L28 22L27 22L27 23L28 23L28 24L30 24L30 23L29 23L29 22L30 22L30 21L31 21L31 20L30 20L30 19L31 19L31 16L30 16L30 15L29 15L29 13L28 13L28 15L29 15L29 17L28 17L28 16L27 16L27 15L26 15L26 14L25 14L25 16L24 16L24 14L19 14L19 13L20 13L20 12L21 12L21 13L22 13L22 12L21 12L21 11L23 11L23 13L27 13L27 12L28 12L28 11L27 11L27 10L25 10L25 11L26 11L26 12L24 12L24 10L21 10L21 11L20 11L20 10L19 10L19 9L20 9L20 8L21 8L21 9L22 9L22 8L21 8L21 7L22 7L22 6L23 6L23 9L25 9L25 8L24 8L24 5L23 5L23 4L22 4L22 3L20 3L20 5L19 5L19 7L18 7L18 6L17 6L17 8L15 8L15 7L16 7L16 6L15 6L15 5L14 5L14 4L15 4L15 3L14 3L14 2L13 2L13 3L12 3L12 1ZM13 3L13 4L14 4L14 3ZM21 4L21 6L20 6L20 7L19 7L19 8L20 8L20 7L21 7L21 6L22 6L22 4ZM10 6L10 7L11 7L11 6ZM14 6L14 7L15 7L15 6ZM13 8L13 9L11 9L11 10L10 10L10 11L11 11L11 10L12 10L12 12L13 12L13 13L11 13L11 12L9 12L9 11L8 11L8 12L6 12L6 13L8 13L8 12L9 12L9 13L11 13L11 14L12 14L12 16L13 16L13 17L11 17L11 18L12 18L12 20L13 20L13 21L14 21L14 20L13 20L13 19L14 19L14 18L15 18L15 19L16 19L16 18L17 18L17 19L18 19L18 17L14 17L14 16L13 16L13 15L14 15L14 14L15 14L15 15L16 15L16 16L17 16L17 15L16 15L16 14L17 14L17 12L15 12L15 13L14 13L14 12L13 12L13 9L14 9L14 10L15 10L15 11L19 11L19 10L15 10L15 9L14 9L14 8ZM29 8L29 9L30 9L30 8ZM31 8L31 10L33 10L33 9L32 9L32 8ZM30 11L30 12L31 12L31 11ZM13 13L13 14L14 14L14 13ZM18 15L18 16L19 16L19 15ZM2 16L2 18L3 18L3 16ZM21 16L21 17L22 17L22 18L23 18L23 19L24 19L24 18L23 18L23 17L22 17L22 16ZM5 17L5 18L7 18L7 17ZM13 17L13 18L14 18L14 17ZM10 19L10 20L11 20L11 19ZM28 20L28 21L30 21L30 20ZM2 23L2 25L3 25L3 23ZM13 24L13 25L14 25L14 24ZM25 25L25 28L28 28L28 25ZM26 26L26 27L27 27L27 26ZM18 27L18 28L20 28L20 27ZM23 27L23 30L21 30L21 31L22 31L22 32L23 32L23 30L28 30L28 29L24 29L24 27ZM29 27L29 28L30 28L30 29L31 29L31 28L30 28L30 27ZM9 29L9 30L10 30L10 29ZM9 31L9 32L10 32L10 31ZM13 31L13 32L14 32L14 31ZM0 0L0 7L7 7L7 0ZM1 1L1 6L6 6L6 1ZM2 2L2 5L5 5L5 2ZM26 0L26 7L33 7L33 0ZM27 1L27 6L32 6L32 1ZM28 2L28 5L31 5L31 2ZM0 26L0 33L7 33L7 26ZM1 27L1 32L6 32L6 27ZM2 28L2 31L5 31L5 28Z" fill="#000000"/></g></g></svg>
