<?xml version="1.0" encoding="UTF-8"?>
<svg xmlns="http://www.w3.org/2000/svg" version="1.1" width="100" height="100" viewBox="0 0 100 100"><rect x="0" y="0" width="100" height="100" fill="#ffffff"/><g transform="scale(3.03)"><g transform="translate(0,0)"><path fill-rule="evenodd" d="M8 0L8 1L9 1L9 2L8 2L8 5L9 5L9 4L11 4L11 5L10 5L10 10L9 10L9 8L8 8L8 9L7 9L7 8L6 8L6 9L4 9L4 8L0 8L0 10L2 10L2 11L3 11L3 10L2 10L2 9L4 9L4 10L6 10L6 11L7 11L7 10L8 10L8 11L9 11L9 12L8 12L8 14L6 14L6 13L7 13L7 12L6 12L6 13L5 13L5 11L4 11L4 14L3 14L3 12L1 12L1 13L0 13L0 14L1 14L1 15L0 15L0 16L1 16L1 17L2 17L2 16L3 16L3 15L5 15L5 17L4 17L4 19L3 19L3 18L2 18L2 19L3 19L3 21L4 21L4 22L2 22L2 20L1 20L1 19L0 19L0 20L1 20L1 21L0 21L0 22L2 22L2 23L1 23L1 24L0 24L0 25L1 25L1 24L2 24L2 23L4 23L4 24L5 24L5 25L7 25L7 24L8 24L8 26L9 26L9 28L10 28L10 31L9 31L9 29L8 29L8 33L9 33L9 32L10 32L10 31L11 31L11 32L12 32L12 33L13 33L13 32L12 32L12 31L13 31L13 30L15 30L15 31L14 31L14 32L15 32L15 33L18 33L18 32L19 32L19 33L22 33L22 32L23 32L23 31L22 31L22 30L21 30L21 31L19 31L19 29L25 29L25 30L24 30L24 32L25 32L25 33L26 33L26 32L27 32L27 33L28 33L28 32L30 32L30 33L31 33L31 32L30 32L30 29L31 29L31 31L32 31L32 32L33 32L33 31L32 31L32 29L33 29L33 27L31 27L31 26L30 26L30 24L29 24L29 23L28 23L28 24L26 24L26 23L27 23L27 22L28 22L28 21L26 21L26 20L29 20L29 21L30 21L30 22L31 22L31 24L32 24L32 25L33 25L33 24L32 24L32 23L33 23L33 21L31 21L31 20L30 20L30 18L31 18L31 19L32 19L32 20L33 20L33 19L32 19L32 18L33 18L33 16L31 16L31 14L32 14L32 13L30 13L30 14L28 14L28 15L27 15L27 14L26 14L26 13L24 13L24 15L23 15L23 12L24 12L24 11L25 11L25 10L26 10L26 11L27 11L27 13L29 13L29 12L28 12L28 11L31 11L31 12L32 12L32 11L33 11L33 8L32 8L32 9L31 9L31 8L28 8L28 9L26 9L26 8L25 8L25 4L24 4L24 7L23 7L23 3L22 3L22 5L18 5L18 4L17 4L17 2L19 2L19 1L17 1L17 2L16 2L16 3L14 3L14 2L15 2L15 0L12 0L12 1L11 1L11 0L10 0L10 1L9 1L9 0ZM20 0L20 1L21 1L21 2L24 2L24 3L25 3L25 2L24 2L24 1L25 1L25 0L23 0L23 1L21 1L21 0ZM13 1L13 2L11 2L11 4L12 4L12 3L13 3L13 4L14 4L14 5L12 5L12 6L11 6L11 8L12 8L12 6L13 6L13 11L11 11L11 13L9 13L9 14L8 14L8 15L6 15L6 16L9 16L9 14L10 14L10 18L8 18L8 17L6 17L6 18L5 18L5 19L6 19L6 20L9 20L9 19L10 19L10 18L11 18L11 21L12 21L12 19L13 19L13 22L12 22L12 23L11 23L11 22L8 22L8 21L6 21L6 22L8 22L8 23L10 23L10 24L9 24L9 25L10 25L10 24L11 24L11 26L10 26L10 28L12 28L12 27L13 27L13 28L15 28L15 29L16 29L16 28L18 28L18 27L17 27L17 26L21 26L21 27L22 27L22 28L24 28L24 27L23 27L23 26L22 26L22 22L23 22L23 21L24 21L24 22L25 22L25 23L26 23L26 22L25 22L25 20L26 20L26 15L25 15L25 18L23 18L23 17L21 17L21 15L20 15L20 16L19 16L19 14L22 14L22 12L23 12L23 11L22 11L22 10L23 10L23 9L24 9L24 10L25 10L25 8L23 8L23 7L22 7L22 6L21 6L21 7L20 7L20 6L19 6L19 7L20 7L20 8L18 8L18 9L19 9L19 11L20 11L20 8L22 8L22 10L21 10L21 13L20 13L20 12L19 12L19 14L17 14L17 13L16 13L16 14L15 14L15 11L17 11L17 12L18 12L18 11L17 11L17 7L18 7L18 6L17 6L17 7L16 7L16 5L17 5L17 4L16 4L16 5L15 5L15 4L14 4L14 3L13 3L13 2L14 2L14 1ZM19 3L19 4L20 4L20 3ZM14 5L14 7L15 7L15 8L16 8L16 7L15 7L15 5ZM8 6L8 7L9 7L9 6ZM6 9L6 10L7 10L7 9ZM11 9L11 10L12 10L12 9ZM14 9L14 11L13 11L13 12L12 12L12 13L11 13L11 16L12 16L12 14L13 14L13 15L14 15L14 14L13 14L13 13L14 13L14 11L15 11L15 9ZM28 9L28 10L27 10L27 11L28 11L28 10L31 10L31 11L32 11L32 10L31 10L31 9ZM16 14L16 15L15 15L15 16L13 16L13 18L15 18L15 19L14 19L14 20L16 20L16 18L17 18L17 20L18 20L18 21L17 21L17 22L16 22L16 23L15 23L15 21L14 21L14 23L13 23L13 25L14 25L14 23L15 23L15 24L16 24L16 26L17 26L17 24L16 24L16 23L17 23L17 22L19 22L19 21L20 21L20 22L21 22L21 21L22 21L22 20L24 20L24 19L23 19L23 18L21 18L21 17L19 17L19 16L16 16L16 15L17 15L17 14ZM1 15L1 16L2 16L2 15ZM28 15L28 16L30 16L30 15ZM15 16L15 17L16 17L16 16ZM27 17L27 18L28 18L28 17ZM31 17L31 18L32 18L32 17ZM6 18L6 19L7 19L7 18ZM18 18L18 19L20 19L20 18ZM21 19L21 20L22 20L22 19ZM4 22L4 23L5 23L5 22ZM6 23L6 24L7 24L7 23ZM19 23L19 24L20 24L20 23ZM25 25L25 28L28 28L28 25ZM13 26L13 27L14 27L14 26ZM26 26L26 27L27 27L27 26ZM29 26L29 29L28 29L28 31L27 31L27 32L28 32L28 31L29 31L29 29L30 29L30 26ZM15 27L15 28L16 28L16 27ZM12 29L12 30L11 30L11 31L12 31L12 30L13 30L13 29ZM17 29L17 30L18 30L18 29ZM26 29L26 30L27 30L27 29ZM15 31L15 32L16 32L16 31ZM21 31L21 32L22 32L22 31ZM25 31L25 32L26 32L26 31ZM0 0L0 7L7 7L7 0ZM1 1L1 6L6 6L6 1ZM2 2L2 5L5 5L5 2ZM26 0L26 7L33 7L33 0ZM27 1L27 6L32 6L32 1ZM28 2L28 5L31 5L31 2ZM0 26L0 33L7 33L7 26ZM1 27L1 32L6 32L6 27ZM2 28L2 31L5 31L5 28Z" fill="#000000"/></g></g></svg>
