<?xml version="1.0" encoding="UTF-8"?>
<svg xmlns="http://www.w3.org/2000/svg" version="1.1" width="100" height="100" viewBox="0 0 100 100"><rect x="0" y="0" width="100" height="100" fill="#ffffff"/><g transform="scale(3.03)"><g transform="translate(0,0)"><path fill-rule="evenodd" d="M9 0L9 1L8 1L8 2L9 2L9 3L8 3L8 4L10 4L10 3L11 3L11 2L10 2L10 1L12 1L12 3L13 3L13 4L11 4L11 5L10 5L10 7L11 7L11 5L12 5L12 8L13 8L13 9L11 9L11 8L6 8L6 9L8 9L8 12L9 12L9 13L10 13L10 17L11 17L11 18L12 18L12 20L13 20L13 21L11 21L11 20L10 20L10 19L9 19L9 20L8 20L8 21L7 21L7 20L5 20L5 21L2 21L2 18L4 18L4 19L8 19L8 18L6 18L6 17L7 17L7 16L6 16L6 15L8 15L8 16L9 16L9 15L8 15L8 13L7 13L7 12L6 12L6 13L5 13L5 14L6 14L6 15L4 15L4 13L3 13L3 14L2 14L2 13L0 13L0 16L1 16L1 17L0 17L0 19L1 19L1 20L0 20L0 25L1 25L1 21L2 21L2 24L3 24L3 25L8 25L8 27L9 27L9 28L8 28L8 33L9 33L9 30L10 30L10 33L11 33L11 30L12 30L12 32L13 32L13 33L14 33L14 32L13 32L13 29L14 29L14 30L15 30L15 33L19 33L19 32L20 32L20 33L21 33L21 32L22 32L22 33L23 33L23 32L24 32L24 33L25 33L25 32L26 32L26 33L27 33L27 32L28 32L28 33L29 33L29 31L28 31L28 30L29 30L29 29L30 29L30 30L31 30L31 31L30 31L30 32L31 32L31 33L32 33L32 32L31 32L31 31L32 31L32 30L31 30L31 29L33 29L33 28L31 28L31 27L32 27L32 26L33 26L33 24L32 24L32 26L29 26L29 25L30 25L30 24L31 24L31 23L32 23L32 22L33 22L33 21L32 21L32 20L31 20L31 19L32 19L32 18L33 18L33 17L32 17L32 16L31 16L31 15L32 15L32 14L33 14L33 13L31 13L31 15L30 15L30 13L29 13L29 10L28 10L28 8L27 8L27 9L26 9L26 8L25 8L25 3L24 3L24 2L22 2L22 0L20 0L20 2L21 2L21 3L22 3L22 4L20 4L20 7L19 7L19 5L17 5L17 2L19 2L19 1L15 1L15 0L14 0L14 1L13 1L13 0ZM23 0L23 1L24 1L24 0ZM14 1L14 2L13 2L13 3L14 3L14 4L13 4L13 8L14 8L14 9L13 9L13 10L14 10L14 11L13 11L13 12L12 12L12 10L11 10L11 9L10 9L10 11L11 11L11 12L10 12L10 13L13 13L13 14L14 14L14 15L13 15L13 16L12 16L12 14L11 14L11 17L13 17L13 20L14 20L14 21L13 21L13 22L14 22L14 21L17 21L17 22L16 22L16 23L15 23L15 25L17 25L17 26L18 26L18 27L17 27L17 28L19 28L19 29L20 29L20 26L18 26L18 25L19 25L19 24L20 24L20 25L22 25L22 24L20 24L20 23L22 23L22 22L23 22L23 23L24 23L24 22L23 22L23 20L24 20L24 21L28 21L28 22L25 22L25 23L26 23L26 24L27 24L27 23L28 23L28 24L30 24L30 23L29 23L29 22L30 22L30 21L31 21L31 20L30 20L30 19L31 19L31 16L30 16L30 15L29 15L29 13L28 13L28 15L29 15L29 17L28 17L28 16L27 16L27 14L26 14L26 16L24 16L24 14L23 14L23 13L27 13L27 12L28 12L28 11L27 11L27 10L26 10L26 12L24 12L24 10L21 10L21 9L22 9L22 8L20 8L20 10L19 10L19 7L18 7L18 6L17 6L17 5L16 5L16 6L15 6L15 5L14 5L14 4L16 4L16 2L15 2L15 1ZM8 5L8 7L9 7L9 5ZM21 5L21 7L22 7L22 6L23 6L23 9L25 9L25 8L24 8L24 5ZM14 6L14 7L15 7L15 9L14 9L14 10L15 10L15 12L17 12L17 10L15 10L15 9L17 9L17 6L16 6L16 7L15 7L15 6ZM0 8L0 10L1 10L1 11L0 11L0 12L3 12L3 10L4 10L4 9L5 9L5 8ZM29 8L29 9L30 9L30 8ZM31 8L31 10L33 10L33 9L32 9L32 8ZM5 10L5 11L7 11L7 10ZM18 11L18 12L20 12L20 13L19 13L19 14L20 14L20 15L21 15L21 16L20 16L20 17L17 17L17 16L15 16L15 17L14 17L14 16L13 16L13 17L14 17L14 18L15 18L15 19L16 19L16 20L17 20L17 19L19 19L19 18L21 18L21 19L20 19L20 21L19 21L19 22L21 22L21 20L22 20L22 19L23 19L23 18L24 18L24 20L25 20L25 19L26 19L26 20L27 20L27 19L30 19L30 17L29 17L29 18L28 18L28 17L26 17L26 18L25 18L25 17L23 17L23 14L22 14L22 13L23 13L23 11L21 11L21 12L20 12L20 11ZM30 11L30 12L31 12L31 11ZM13 12L13 13L14 13L14 14L15 14L15 15L18 15L18 13L17 13L17 14L15 14L15 13L14 13L14 12ZM21 12L21 13L22 13L22 12ZM6 13L6 14L7 14L7 13ZM1 14L1 15L2 15L2 17L1 17L1 18L2 18L2 17L3 17L3 16L4 16L4 15L2 15L2 14ZM21 16L21 17L22 17L22 16ZM4 17L4 18L5 18L5 17ZM16 18L16 19L17 19L17 18ZM28 20L28 21L30 21L30 20ZM5 21L5 22L4 22L4 24L7 24L7 23L5 23L5 22L7 22L7 21ZM10 21L10 22L8 22L8 24L9 24L9 25L14 25L14 23L13 23L13 24L12 24L12 22L11 22L11 21ZM10 23L10 24L11 24L11 23ZM18 23L18 24L19 24L19 23ZM25 25L25 28L28 28L28 25ZM9 26L9 27L10 27L10 28L11 28L11 29L10 29L10 30L11 30L11 29L13 29L13 28L14 28L14 29L16 29L16 27L15 27L15 28L14 28L14 27L13 27L13 28L12 28L12 26L11 26L11 27L10 27L10 26ZM21 26L21 27L22 27L22 28L21 28L21 29L22 29L22 30L23 30L23 31L24 31L24 32L25 32L25 31L24 31L24 30L23 30L23 29L24 29L24 27L23 27L23 26ZM26 26L26 27L27 27L27 26ZM29 27L29 28L30 28L30 29L31 29L31 28L30 28L30 27ZM22 28L22 29L23 29L23 28ZM25 29L25 30L28 30L28 29ZM17 30L17 31L16 31L16 32L19 32L19 31L20 31L20 32L21 32L21 31L20 31L20 30ZM26 31L26 32L27 32L27 31ZM0 0L0 7L7 7L7 0ZM1 1L1 6L6 6L6 1ZM2 2L2 5L5 5L5 2ZM26 0L26 7L33 7L33 0ZM27 1L27 6L32 6L32 1ZM28 2L28 5L31 5L31 2ZM0 26L0 33L7 33L7 26ZM1 27L1 32L6 32L6 27ZM2 28L2 31L5 31L5 28Z" fill="#000000"/></g></g></svg>
