<?xml version="1.0" encoding="UTF-8"?>
<svg xmlns="http://www.w3.org/2000/svg" version="1.1" width="100" height="100" viewBox="0 0 100 100"><rect x="0" y="0" width="100" height="100" fill="#ffffff"/><g transform="scale(3.03)"><g transform="translate(0,0)"><path fill-rule="evenodd" d="M9 0L9 1L8 1L8 2L9 2L9 3L8 3L8 4L10 4L10 7L11 7L11 4L12 4L12 5L13 5L13 6L12 6L12 8L13 8L13 9L11 9L11 8L6 8L6 9L7 9L7 10L5 10L5 8L0 8L0 9L1 9L1 13L2 13L2 16L1 16L1 15L0 15L0 16L1 16L1 17L0 17L0 19L1 19L1 20L0 20L0 25L1 25L1 21L2 21L2 20L3 20L3 22L4 22L4 23L5 23L5 21L7 21L7 20L8 20L8 22L6 22L6 23L7 23L7 24L5 24L5 25L7 25L7 24L8 24L8 27L9 27L9 28L8 28L8 33L11 33L11 32L10 32L10 29L11 29L11 30L12 30L12 32L13 32L13 33L14 33L14 32L13 32L13 29L14 29L14 30L15 30L15 31L16 31L16 30L17 30L17 31L18 31L18 29L14 29L14 28L13 28L13 25L14 25L14 26L15 26L15 27L16 27L16 28L17 28L17 27L16 27L16 26L17 26L17 25L19 25L19 26L18 26L18 27L19 27L19 26L23 26L23 27L20 27L20 29L19 29L19 30L21 30L21 31L20 31L20 32L19 32L19 33L20 33L20 32L22 32L22 33L23 33L23 32L24 32L24 33L25 33L25 32L24 32L24 31L23 31L23 27L24 27L24 30L25 30L25 31L26 31L26 33L28 33L28 32L27 32L27 31L28 31L28 30L30 30L30 29L29 29L29 25L30 25L30 28L31 28L31 27L32 27L32 29L33 29L33 27L32 27L32 26L33 26L33 24L32 24L32 26L31 26L31 25L30 25L30 24L31 24L31 23L32 23L32 22L33 22L33 21L32 21L32 20L31 20L31 19L32 19L32 18L33 18L33 17L32 17L32 16L31 16L31 15L32 15L32 14L33 14L33 13L31 13L31 15L30 15L30 13L29 13L29 12L28 12L28 11L29 11L29 10L28 10L28 8L27 8L27 9L26 9L26 8L25 8L25 6L24 6L24 9L23 9L23 5L24 5L24 4L23 4L23 3L25 3L25 2L21 2L21 1L24 1L24 0L20 0L20 2L18 2L18 3L20 3L20 7L19 7L19 6L18 6L18 4L17 4L17 3L16 3L16 1L15 1L15 0L14 0L14 1L11 1L11 2L10 2L10 0ZM14 1L14 2L12 2L12 3L14 3L14 4L13 4L13 5L14 5L14 6L13 6L13 8L14 8L14 9L13 9L13 12L12 12L12 10L11 10L11 9L10 9L10 11L11 11L11 12L10 12L10 13L9 13L9 11L8 11L8 10L9 10L9 9L8 9L8 10L7 10L7 11L5 11L5 10L4 10L4 9L2 9L2 11L3 11L3 16L2 16L2 17L1 17L1 18L2 18L2 19L3 19L3 20L4 20L4 21L5 21L5 20L4 20L4 17L6 17L6 18L7 18L7 19L6 19L6 20L7 20L7 19L11 19L11 20L10 20L10 21L13 21L13 24L12 24L12 22L10 22L10 24L9 24L9 23L8 23L8 24L9 24L9 25L10 25L10 24L11 24L11 25L13 25L13 24L14 24L14 25L15 25L15 24L19 24L19 25L20 25L20 24L21 24L21 25L22 25L22 24L21 24L21 23L20 23L20 22L17 22L17 20L19 20L19 21L20 21L20 20L21 20L21 21L22 21L22 22L23 22L23 25L24 25L24 22L23 22L23 21L28 21L28 22L26 22L26 23L28 23L28 24L30 24L30 23L29 23L29 22L30 22L30 21L31 21L31 20L30 20L30 19L31 19L31 16L30 16L30 15L29 15L29 17L28 17L28 18L25 18L25 19L28 19L28 20L24 20L24 18L21 18L21 17L22 17L22 16L20 16L20 18L18 18L18 17L19 17L19 16L18 16L18 15L20 15L20 13L21 13L21 15L22 15L22 14L23 14L23 17L27 17L27 16L28 16L28 15L27 15L27 16L26 16L26 15L25 15L25 16L24 16L24 14L23 14L23 11L24 11L24 12L25 12L25 14L26 14L26 13L28 13L28 14L29 14L29 13L28 13L28 12L27 12L27 10L25 10L25 9L24 9L24 10L23 10L23 11L22 11L22 12L21 12L21 11L20 11L20 8L21 8L21 9L22 9L22 8L21 8L21 7L22 7L22 6L21 6L21 7L20 7L20 8L19 8L19 7L18 7L18 6L17 6L17 4L15 4L15 1ZM20 2L20 3L21 3L21 4L22 4L22 5L23 5L23 4L22 4L22 3L21 3L21 2ZM10 3L10 4L11 4L11 3ZM14 4L14 5L15 5L15 6L14 6L14 7L15 7L15 6L16 6L16 7L17 7L17 6L16 6L16 5L15 5L15 4ZM8 5L8 7L9 7L9 5ZM15 8L15 9L14 9L14 10L15 10L15 11L16 11L16 13L14 13L14 12L13 12L13 13L10 13L10 15L8 15L8 14L6 14L6 15L8 15L8 16L6 16L6 17L7 17L7 18L8 18L8 17L9 17L9 18L12 18L12 20L13 20L13 21L14 21L14 22L15 22L15 23L17 23L17 22L15 22L15 21L14 21L14 20L17 20L17 19L18 19L18 18L15 18L15 17L17 17L17 16L16 16L16 15L17 15L17 11L19 11L19 9L17 9L17 8ZM29 8L29 9L30 9L30 8ZM31 8L31 10L33 10L33 9L32 9L32 8ZM15 9L15 10L17 10L17 9ZM3 10L3 11L4 11L4 10ZM7 11L7 12L5 12L5 13L7 13L7 12L8 12L8 11ZM25 11L25 12L26 12L26 11ZM30 11L30 12L31 12L31 11ZM13 13L13 14L14 14L14 13ZM11 14L11 17L14 17L14 15L13 15L13 16L12 16L12 14ZM3 16L3 17L2 17L2 18L3 18L3 17L4 17L4 16ZM29 17L29 18L28 18L28 19L30 19L30 17ZM13 19L13 20L14 20L14 19ZM19 19L19 20L20 20L20 19ZM21 19L21 20L22 20L22 21L23 21L23 20L22 20L22 19ZM28 20L28 21L30 21L30 20ZM2 23L2 25L3 25L3 23ZM25 25L25 28L28 28L28 25ZM10 26L10 28L9 28L9 29L10 29L10 28L11 28L11 29L13 29L13 28L12 28L12 26ZM26 26L26 27L27 27L27 26ZM21 28L21 29L22 29L22 28ZM25 29L25 30L28 30L28 29ZM31 30L31 31L30 31L30 32L29 32L29 33L30 33L30 32L31 32L31 33L32 33L32 32L31 32L31 31L32 31L32 30ZM0 0L0 7L7 7L7 0ZM1 1L1 6L6 6L6 1ZM2 2L2 5L5 5L5 2ZM26 0L26 7L33 7L33 0ZM27 1L27 6L32 6L32 1ZM28 2L28 5L31 5L31 2ZM0 26L0 33L7 33L7 26ZM1 27L1 32L6 32L6 27ZM2 28L2 31L5 31L5 28Z" fill="#000000"/></g></g></svg>
